<svg width="25" height="25" viewBox="0 0 25 25" fill="none" xmlns="http://www.w3.org/2000/svg">
<path d="M9.5 22.5H15.5C20.5 22.5 22.5 20.5 22.5 15.5V9.5C22.5 4.5 20.5 2.5 15.5 2.5H9.5C4.5 2.5 2.5 4.5 2.5 9.5V15.5C2.5 20.5 4.5 22.5 9.5 22.5Z" stroke="#1498DD" stroke-width="1.5" stroke-linecap="round" stroke-linejoin="round"/>
<path d="M9.5 10.5C10.6046 10.5 11.5 9.60457 11.5 8.5C11.5 7.39543 10.6046 6.5 9.5 6.5C8.39543 6.5 7.5 7.39543 7.5 8.5C7.5 9.60457 8.39543 10.5 9.5 10.5Z" stroke="#1498DD" stroke-width="1.5" stroke-linecap="round" stroke-linejoin="round"/>
<path d="M3.17004 19.4501L8.10004 16.1401C8.89004 15.6101 10.03 15.6701 10.74 16.2801L11.07 16.5701C11.85 17.2401 13.11 17.2401 13.89 16.5701L18.05 13.0001C18.83 12.3301 20.09 12.3301 20.87 13.0001L22.5 14.4001" stroke="#1498DD" stroke-width="1.5" stroke-linecap="round" stroke-linejoin="round"/>
</svg>
